#!OML:ASF F:\VICON\USERDATA\INSTALL\rory3\rory3.ASF
:FULLY-SPECIFIED
:DEGREES
399
root 4.61743 16.5907 2.21647 10.271 -7.85081 -0.971103
lowerback 4.5475 -0.644189 -1.44529
upperback 1.22584 -0.934243 -0.611846
thorax -1.27705 -0.46428 0.234793
lowerneck -12.5439 -0.696116 -1.81602
upperneck 38.0895 -0.855346 0.477443
head 15.5012 -0.620477 0.370376
rclavicle 2.05742e-014 4.37326e-015
rhumerus -12.7819 33.5765 -73.211
rradius 98.5022
rwrist -32.4052
rhand -6.4082 -39.5179
rfingers 7.12502
rthumb 19.4399 -68.5662
lclavicle 2.05742e-014 4.37326e-015
lhumerus 4.69852 -35.5456 63.09
lradius 86.5922
lwrist 55.8545
lhand -19.8192 -21.998
lfingers 7.12502
lthumb 6.51437 7.88182
rfemur -57.2385 0.0950351 17.9809
rtibia 30.9733
rfoot 36.606 -5.3796
rtoes 4.21676
lfemur -34.299 1.03373 -28.7573
ltibia 46.3926
lfoot -20.5728 3.54967
ltoes 15.0502
400
root 4.61507 16.5861 2.2171 10.4344 -7.93267 -0.991375
lowerback 4.36955 -0.607597 -1.43214
upperback 1.25947 -0.880905 -0.607569
thorax -1.14407 -0.438658 0.226412
lowerneck -12.5512 -0.690424 -1.66693
upperneck 37.9837 -0.805066 0.26031
head 15.4471 -0.606222 0.259605
rclavicle 1.5207e-014 -9.54166e-015
rhumerus -13.6253 33.6974 -73.7073
rradius 98.4327
rwrist -32.1346
rhand -6.41208 -40.0505
rfingers 7.12502
rthumb 19.4362 -69.0991
lclavicle 1.5207e-014 -9.54166e-015
lhumerus 3.82395 -35.8347 63.6514
lradius 86.6051
lwrist 55.4523
lhand -20.2568 -21.6766
lfingers 7.12502
lthumb 6.09186 8.21584
rfemur -57.5873 0.017624 18.0857
rtibia 31.2623
rfoot 36.3038 -5.41889
rtoes 4.55387
lfemur -34.4152 1.01433 -28.7524
ltibia 46.2458
lfoot -20.4885 3.56351
ltoes 15.0285
401
root 4.61726 16.5841 2.21725 10.6597 -8.08721 -1.043
lowerback 4.08639 -0.547977 -1.31148
upperback 1.30448 -0.790632 -0.615534
thorax -0.942808 -0.394995 0.142485
lowerneck -12.4586 -0.694935 -1.67319
upperneck 37.7883 -0.778233 0.181091
head 15.3271 -0.604855 0.23225
rclavicle 2.67365e-014 1.23246e-014
rhumerus -14.4906 33.8147 -74.1579
rradius 98.3792
rwrist -31.7568
rhand -6.36303 -40.2481
rfingers 7.12502
rthumb 19.4833 -69.2919
lclavicle 2.67365e-014 1.23246e-014
lhumerus 3.08085 -35.9972 64.1603
lradius 86.51
lwrist 55.0248
lhand -19.1937 -22.924
lfingers 7.12502
lthumb 7.11817 6.93629
rfemur -57.7997 -0.0745964 18.282
rtibia 31.1416
rfoot 37.8758 -4.60717
rtoes 8.26748
lfemur -34.7542 0.956558 -28.7249
ltibia 46.4498
lfoot -20.5583 3.73637
ltoes 14.9968
402
root 4.62256 16.5804 2.23096 10.7421 -8.45431 -1.11099
lowerback 3.78503 -0.42615 -1.10313
upperback 1.41243 -0.614634 -0.66153
thorax -0.668669 -0.308546 -0.032941
lowerneck -12.498 -0.696385 -1.70403
upperneck 37.7279 -0.755035 0.145827
head 15.3064 -0.603288 0.226695
rclavicle 1.09332e-014 -9.14409e-015
rhumerus -15.2779 33.9054 -74.5665
rradius 98.2632
rwrist -31.5495
rhand -6.30934 -40.1026
rfingers 7.12502
rthumb 19.535 -69.1412
lclavicle 1.09332e-014 -9.14409e-015
lhumerus 2.44537 -36.2031 64.5925
lradius 86.3204
lwrist 54.6044
lhand -19.039 -22.9202
lfingers 7.12502
lthumb 7.26755 6.93503
rfemur -57.9158 0.0375974 18.4525
rtibia 31.1164
rfoot 36.5071 -4.43386
rtoes 4.20199
lfemur -34.9176 0.945132 -28.694
ltibia 46.711
lfoot -20.6908 4.05321
ltoes 14.3369
403
root 4.60845 16.5509 2.2022 10.884 -7.94057 -0.898455
lowerback 4.29873 -0.585237 -1.32657
upperback 1.24681 -0.845871 -0.643321
thorax -1.1201 -0.421338 0.12804
lowerneck -12.5366 -0.709196 -1.72489
upperneck 37.7355 -0.74808 0.0980943
head 15.3193 -0.609414 0.211288
rclavicle 1.25234e-014 1.23246e-014
rhumerus -16.0726 34.0444 -74.9828
rradius 98.0832
rwrist -31.5671
rhand -6.36685 -39.95
rfingers 7.12502
rthumb 19.4797 -68.9943
lclavicle 1.25234e-014 1.23246e-014
lhumerus 1.45887 -36.4667 65.1976
lradius 86.3356
lwrist 54.3783
lhand -19.1396 -22.7108
lfingers 7.12502
lthumb 7.17038 7.14771
rfemur -58.2521 -0.0347061 17.9582
rtibia 31.1856
rfoot 35.99 -6.05347
rtoes 4.99988
lfemur -35.4487 0.333478 -28.7678
ltibia 47.1144
lfoot -20.6152 3.97203
ltoes 12.0991
404
root 4.59712 16.5121 2.17973 11.2459 -7.84617 -0.833833
lowerback 4.62311 -0.606842 -1.48063
upperback 0.978754 -0.890701 -0.596958
thorax -1.57274 -0.439465 0.270252
lowerneck -12.4627 -0.744882 -1.81428
upperneck 37.6956 -0.805715 0.172953
head 15.2838 -0.635982 0.249955
rclavicle -1.32192e-014 9.93923e-015
rhumerus -17.0665 34.2457 -75.4266
rradius 98.0038
rwrist -31.5107
rhand -5.89332 -40.2086
rfingers 7.12502
rthumb 19.9349 -69.2061
lclavicle -1.32192e-014 9.93923e-015
lhumerus 0.191859 -36.6265 65.9759
lradius 86.5118
lwrist 54.1567
lhand -19.2887 -22.555
lfingers 7.12502
lthumb 7.02649 7.30838
rfemur -58.8953 0.128408 17.6887
rtibia 31.3018
rfoot 35.9751 -7.20975
rtoes 6.64192
lfemur -36.2532 0.0290333 -28.7721
ltibia 47.555
lfoot -20.6923 4.00475
ltoes 15.8479
405
root 4.59207 16.4809 2.15989 11.7499 -7.80767 -0.855577
lowerback 4.55723 -0.624669 -1.46584
upperback 0.79237 -0.914101 -0.559342
thorax -1.72654 -0.449313 0.302479
lowerneck -12.4863 -0.744764 -1.85301
upperneck 37.6891 -0.835224 0.280893
head 15.2873 -0.639096 0.297684
rclavicle -6.36111e-015 -3.97569e-015
rhumerus -17.8812 34.5146 -75.773
rradius 97.9177
rwrist -31.4841
rhand -7.35528 -37.8525
rfingers 7.12502
rthumb 18.5291 -66.99
lclavicle -6.36111e-015 -3.97569e-015
lhumerus -0.79905 -36.7833 66.5705
lradius 86.52
lwrist 53.9531
lhand -19.6674 -22.2974
lfingers 7.12502
lthumb 6.6609 7.57788
rfemur -59.6313 0.16029 17.6252
rtibia 31.3888
rfoot 36.07 -7.366
rtoes 6.94036
lfemur -37.0877 -0.235764 -28.732
ltibia 47.8836
lfoot -20.7452 4.13759
ltoes 17.1853
406
root 4.59481 16.4787 2.16687 11.7425 -7.97277 -0.916633
lowerback 4.4586 -0.568895 -1.31483
upperback 0.983747 -0.828605 -0.567863
thorax -1.47856 -0.409693 0.201617
lowerneck -12.8325 -0.719444 -1.80185
upperneck 37.7613 -0.778683 0.217548
head 15.4042 -0.615674 0.269826
rclavicle 4.37326e-015 -1.55052e-014
rhumerus -18.3415 34.6928 -75.948
rradius 97.759
rwrist -31.513
rhand -7.21659 -38.5186
rfingers 7.12502
rthumb 18.6625 -67.6434
lclavicle 4.37326e-015 -1.55052e-014
lhumerus -1.36135 -36.9319 66.8944
lradius 86.3595
lwrist 53.9434
lhand -19.6656 -22.308
lfingers 7.12502
lthumb 6.66263 7.56717
rfemur -59.5782 0.188035 17.7594
rtibia 31.3426
rfoot 36.0633 -6.6264
rtoes 6.13584
lfemur -37.0305 -0.271952 -28.6812
ltibia 47.9502
lfoot -20.8149 4.38881
ltoes 17.114
407
root 4.60052 16.5053 2.19866 11.2648 -8.58573 -0.996163
lowerback 4.5448 -0.361452 -1.22723
upperback 1.32871 -0.546777 -0.598288
thorax -1.17751 -0.272259 0.104641
lowerneck -12.9731 -0.702567 -1.78139
upperneck 37.7068 -0.709774 0.102053
head 15.4093 -0.598226 0.228239
rclavicle 3.77691e-015 -9.14409e-015
rhumerus -18.8605 34.7387 -76.1189
rradius 97.599
rwrist -31.6291
rhand -4.99602 -42.3279
rfingers 7.12502
rthumb 20.7972 -71.2334
lclavicle 3.77691e-015 -9.14409e-015
lhumerus -1.9299 -37.0244 67.2156
lradius 86.1866
lwrist 54.0039
lhand -19.2017 -22.3889
lfingers 7.12502
lthumb 7.11043 7.47162
rfemur -58.8541 0.415683 18.0879
rtibia 31.1874
rfoot 35.8907 -5.84108
rtoes 5.33268
lfemur -36.2233 0.113594 -28.6578
ltibia 47.7629
lfoot -20.9999 4.71914
ltoes 16.9759
408
root 4.60644 16.5288 2.24189 10.6441 -9.39333 -1.08155
lowerback 4.69107 -0.101379 -1.1276
upperback 1.65851 -0.196225 -0.644966
thorax -0.925051 -0.0996689 -0.0183029
lowerneck -12.7476 -0.684934 -1.76588
upperneck 37.4625 -0.641365 -0.0295238
head 15.2335 -0.583448 0.182416
rclavicle -2.25621e-014 2.38542e-015
rhumerus -19.6053 34.7961 -76.409
rradius 97.4852
rwrist -31.7462
rhand -4.76849 -42.106
rfingers 7.12502
rthumb 21.0158 -70.9873
lclavicle -2.25621e-014 2.38542e-015
lhumerus -2.74159 -37.1213 67.6386
lradius 86.1164
lwrist 54.0585
lhand -18.836 -22.3111
lfingers 7.12502
lthumb 7.46347 7.53725
rfemur -57.9742 0.665365 18.5362
rtibia 31.0248
rfoot 35.798 -5.19956
rtoes 4.90231
lfemur -35.2131 0.697162 -28.6645
ltibia 47.5355
lfoot -21.1442 5.11854
ltoes 16.3575
409
root 4.60809 16.5384 2.27093 10.2204 -9.89447 -1.25202
lowerback 4.88375 0.0450715 -0.950887
upperback 1.88381 0.00594464 -0.605737
thorax -0.802971 0.00029533 -0.0880964
lowerneck -12.5322 -0.678101 -1.85953
upperneck 37.2201 -0.5731 -0.121653
head 15.0639 -0.578554 0.172909
rclavicle -3.08116e-015 5.96354e-015
rhumerus -20.6454 34.8831 -76.8202
rradius 97.4684
rwrist -31.5418
rhand -5.63565 -40.1556
rfingers 7.12502
rthumb 20.1826 -69.1271
lclavicle -3.08116e-015 5.96354e-015
lhumerus -3.78077 -37.1672 68.2184
lradius 86.1494
lwrist 53.9369
lhand -18.6118 -22.3811
lfingers 7.12502
lthumb 7.6799 7.45946
rfemur -57.3691 0.912251 18.9036
rtibia 30.9229
rfoot 35.8691 -4.4873
rtoes 4.12228
lfemur -34.537 1.05383 -28.5217
ltibia 47.4464
lfoot -21.2145 5.41604
ltoes 15.7677
410
root 4.60211 16.5272 2.26985 10.3149 -10.0159 -1.40775
lowerback 5.08835 0.0789046 -0.883356
upperback 1.79707 0.0517259 -0.508875
thorax -1.00632 0.0239337 -0.0294477
lowerneck -12.301 -0.685485 -2.06028
upperneck 37.1448 -0.5511 -0.07196
head 14.9744 -0.59033 0.23401
rclavicle -1.23246e-014 1.11319e-014
rhumerus -21.7909 35.0069 -77.2707
rradius 97.3537
rwrist -31.2186
rhand -6.0371 -39.2735
rfingers 7.12502
rthumb 19.7967 -68.2853
lclavicle -1.23246e-014 1.11319e-014
lhumerus -4.93454 -37.335 68.8447
lradius 86.1287
lwrist 53.7125
lhand -18.3993 -22.585
lfingers 7.12502
lthumb 7.88494 7.24792
rfemur -57.5266 1.13213 19.0532
rtibia 30.9917
rfoot 35.915 -4.37833
rtoes 3.88944
lfemur -34.6914 1.05777 -28.3394
ltibia 47.5566
lfoot -21.3371 5.53616
ltoes 16.0374
411
root 4.59638 16.5018 2.24733 10.8572 -9.67238 -1.31196
lowerback 5.05785 -0.0244717 -0.9411
upperback 1.53076 -0.0898192 -0.491209
thorax -1.26165 -0.0450378 0.0294424
lowerneck -12.2393 -0.710978 -2.13955
upperneck 37.2955 -0.575183 -0.0544963
head 15.0342 -0.610676 0.25147
rclavicle 2.26615e-014 -6.36111e-015
rhumerus -22.6327 35.101 -77.5956
rradius 97.0318
rwrist -30.9337
rhand -5.8699 -39.4808
rfingers 7.12502
rthumb 19.9574 -68.476
lclavicle 2.26615e-014 -6.36111e-015
lhumerus -5.89758 -37.6347 69.2795
lradius 85.9978
lwrist 53.6425
lhand -18.1455 -22.6102
lfingers 7.12502
lthumb 8.12994 7.21339
rfemur -58.3364 0.969696 18.8795
rtibia 31.1831
rfoot 35.9462 -5.06555
rtoes 4.63304
lfemur -35.545 0.54282 -28.3822
ltibia 47.7586
lfoot -21.3204 5.56219
ltoes 16.6739
